# xmcd
#
# Track frame offsets:
# 150
# 21767
# 42021
# 58905
# 69001
# 91268
# 102401
# 118892
# 131783
# 146991
# 169742
#
# Disc length: 2824 seconds
#
#
# Revision: 0
# Processed by: cddbd v1.5.1PL2 Copyright (c) Steve Scherf et al.
# Submitted via: FreeRIP 2.944 
#
DISCID=9c0b060b
DTITLE=Hektor and the Gas Giants - Who's Hektor?
DYEAR=1999
DGENRE=Swing
TTITLE0=My Dad Can Swing
TTITLE1=The Man with the Gold Pocketwatch
TTITLE2=300 Pounds of Heavenly Joy
TTITLE3=She Don't Care
TTITLE4=Since You Left Me
TTITLE5=Love You Like Eats
TTITLE6=Banana Split For My Baby
TTITLE7=Swing Shift
TTITLE8=Scat Cat
TTITLE9=Fishawk Fuffle
TTITLE10=Hector's Last Stand
EXTD=
EXTT0=
EXTT1=
EXTT2=
EXTT3=
EXTT4=
EXTT5=
EXTT6=
EXTT7=
EXTT8=
EXTT9=
EXTT10=
PLAYORDER=
